G04 #@! TF.GenerationSoftware,KiCad,Pcbnew,(5.1.2)-1*
G04 #@! TF.CreationDate,2019-05-23T17:06:42+02:00*
G04 #@! TF.ProjectId,ATtiny_Voltera,41547469-6e79-45f5-966f-6c746572612e,rev?*
G04 #@! TF.SameCoordinates,Original*
G04 #@! TF.FileFunction,Copper,L1,Top*
G04 #@! TF.FilePolarity,Positive*
%FSLAX46Y46*%
G04 Gerber Fmt 4.6, Leading zero omitted, Abs format (unit mm)*
G04 Created by KiCad (PCBNEW (5.1.2)-1) date 2019-05-23 17:06:42*
%MOMM*%
%LPD*%
G04 APERTURE LIST*
%ADD10C,0.225000*%
%ADD11C,0.220000*%
%ADD12C,0.300000*%
%ADD13R,3.150000X1.000000*%
%ADD14R,1.700000X0.650000*%
%ADD15C,0.100000*%
%ADD16C,1.150000*%
%ADD17R,1.900000X1.175000*%
%ADD18R,1.900000X2.375000*%
%ADD19R,2.100000X1.475000*%
%ADD20R,1.380000X0.450000*%
%ADD21R,0.450000X0.600000*%
%ADD22C,0.500000*%
G04 APERTURE END LIST*
D10*
X92548400Y-133626200D02*
X93119828Y-133626200D01*
X92434114Y-133969057D02*
X92834114Y-132769057D01*
X93234114Y-133969057D01*
X94262685Y-133969057D02*
X93576971Y-133969057D01*
X93919828Y-133969057D02*
X93919828Y-132769057D01*
X93805542Y-132940485D01*
X93691257Y-133054771D01*
X93576971Y-133111914D01*
X95062685Y-134369057D02*
X95062685Y-132654771D01*
X95919828Y-133969057D02*
X95919828Y-132769057D01*
X96205542Y-132769057D01*
X96376971Y-132826200D01*
X96491257Y-132940485D01*
X96548400Y-133054771D01*
X96605542Y-133283342D01*
X96605542Y-133454771D01*
X96548400Y-133683342D01*
X96491257Y-133797628D01*
X96376971Y-133911914D01*
X96205542Y-133969057D01*
X95919828Y-133969057D01*
X97748400Y-133969057D02*
X97062685Y-133969057D01*
X97405542Y-133969057D02*
X97405542Y-132769057D01*
X97291257Y-132940485D01*
X97176971Y-133054771D01*
X97062685Y-133111914D01*
X92548400Y-131060800D02*
X93119828Y-131060800D01*
X92434114Y-131403657D02*
X92834114Y-130203657D01*
X93234114Y-131403657D01*
X93862685Y-130203657D02*
X93976971Y-130203657D01*
X94091257Y-130260800D01*
X94148400Y-130317942D01*
X94205542Y-130432228D01*
X94262685Y-130660800D01*
X94262685Y-130946514D01*
X94205542Y-131175085D01*
X94148400Y-131289371D01*
X94091257Y-131346514D01*
X93976971Y-131403657D01*
X93862685Y-131403657D01*
X93748400Y-131346514D01*
X93691257Y-131289371D01*
X93634114Y-131175085D01*
X93576971Y-130946514D01*
X93576971Y-130660800D01*
X93634114Y-130432228D01*
X93691257Y-130317942D01*
X93748400Y-130260800D01*
X93862685Y-130203657D01*
X95062685Y-131803657D02*
X95062685Y-130089371D01*
X95919828Y-131403657D02*
X95919828Y-130203657D01*
X96205542Y-130203657D01*
X96376971Y-130260800D01*
X96491257Y-130375085D01*
X96548400Y-130489371D01*
X96605542Y-130717942D01*
X96605542Y-130889371D01*
X96548400Y-131117942D01*
X96491257Y-131232228D01*
X96376971Y-131346514D01*
X96205542Y-131403657D01*
X95919828Y-131403657D01*
X97348400Y-130203657D02*
X97462685Y-130203657D01*
X97576971Y-130260800D01*
X97634114Y-130317942D01*
X97691257Y-130432228D01*
X97748400Y-130660800D01*
X97748400Y-130946514D01*
X97691257Y-131175085D01*
X97634114Y-131289371D01*
X97576971Y-131346514D01*
X97462685Y-131403657D01*
X97348400Y-131403657D01*
X97234114Y-131346514D01*
X97176971Y-131289371D01*
X97119828Y-131175085D01*
X97062685Y-130946514D01*
X97062685Y-130660800D01*
X97119828Y-130432228D01*
X97176971Y-130317942D01*
X97234114Y-130260800D01*
X97348400Y-130203657D01*
D11*
X93605542Y-136001114D02*
X94519828Y-136001114D01*
X94062685Y-136458257D02*
X94062685Y-135543971D01*
X95662685Y-135258257D02*
X95091257Y-135258257D01*
X95034114Y-135829685D01*
X95091257Y-135772542D01*
X95205542Y-135715400D01*
X95491257Y-135715400D01*
X95605542Y-135772542D01*
X95662685Y-135829685D01*
X95719828Y-135943971D01*
X95719828Y-136229685D01*
X95662685Y-136343971D01*
X95605542Y-136401114D01*
X95491257Y-136458257D01*
X95205542Y-136458257D01*
X95091257Y-136401114D01*
X95034114Y-136343971D01*
X96062685Y-135258257D02*
X96462685Y-136458257D01*
X96862685Y-135258257D01*
X94234114Y-127771600D02*
X94119828Y-127714457D01*
X93948400Y-127714457D01*
X93776971Y-127771600D01*
X93662685Y-127885885D01*
X93605542Y-128000171D01*
X93548400Y-128228742D01*
X93548400Y-128400171D01*
X93605542Y-128628742D01*
X93662685Y-128743028D01*
X93776971Y-128857314D01*
X93948400Y-128914457D01*
X94062685Y-128914457D01*
X94234114Y-128857314D01*
X94291257Y-128800171D01*
X94291257Y-128400171D01*
X94062685Y-128400171D01*
X94805542Y-128914457D02*
X94805542Y-127714457D01*
X95491257Y-128914457D01*
X95491257Y-127714457D01*
X96062685Y-128914457D02*
X96062685Y-127714457D01*
X96348400Y-127714457D01*
X96519828Y-127771600D01*
X96634114Y-127885885D01*
X96691257Y-128000171D01*
X96748400Y-128228742D01*
X96748400Y-128400171D01*
X96691257Y-128628742D01*
X96634114Y-128743028D01*
X96519828Y-128857314D01*
X96348400Y-128914457D01*
X96062685Y-128914457D01*
D12*
X100214638Y-121795552D02*
X100214638Y-123819361D01*
X100309876Y-124057457D01*
X100405114Y-124176504D01*
X100595590Y-124295552D01*
X100976542Y-124295552D01*
X101167019Y-124176504D01*
X101262257Y-124057457D01*
X101357495Y-123819361D01*
X101357495Y-121795552D01*
X102214638Y-124176504D02*
X102500352Y-124295552D01*
X102976542Y-124295552D01*
X103167019Y-124176504D01*
X103262257Y-124057457D01*
X103357495Y-123819361D01*
X103357495Y-123581266D01*
X103262257Y-123343171D01*
X103167019Y-123224123D01*
X102976542Y-123105076D01*
X102595590Y-122986028D01*
X102405114Y-122866980D01*
X102309876Y-122747933D01*
X102214638Y-122509838D01*
X102214638Y-122271742D01*
X102309876Y-122033647D01*
X102405114Y-121914600D01*
X102595590Y-121795552D01*
X103071780Y-121795552D01*
X103357495Y-121914600D01*
X104881304Y-122986028D02*
X105167019Y-123105076D01*
X105262257Y-123224123D01*
X105357495Y-123462219D01*
X105357495Y-123819361D01*
X105262257Y-124057457D01*
X105167019Y-124176504D01*
X104976542Y-124295552D01*
X104214638Y-124295552D01*
X104214638Y-121795552D01*
X104881304Y-121795552D01*
X105071780Y-121914600D01*
X105167019Y-122033647D01*
X105262257Y-122271742D01*
X105262257Y-122509838D01*
X105167019Y-122747933D01*
X105071780Y-122866980D01*
X104881304Y-122986028D01*
X104214638Y-122986028D01*
X107738447Y-124295552D02*
X107738447Y-122628885D01*
X107738447Y-122866980D02*
X107833685Y-122747933D01*
X108024161Y-122628885D01*
X108309876Y-122628885D01*
X108500352Y-122747933D01*
X108595590Y-122986028D01*
X108595590Y-124295552D01*
X108595590Y-122986028D02*
X108690828Y-122747933D01*
X108881304Y-122628885D01*
X109167019Y-122628885D01*
X109357495Y-122747933D01*
X109452733Y-122986028D01*
X109452733Y-124295552D01*
X111167019Y-124176504D02*
X110976542Y-124295552D01*
X110595590Y-124295552D01*
X110405114Y-124176504D01*
X110309876Y-123938409D01*
X110309876Y-122986028D01*
X110405114Y-122747933D01*
X110595590Y-122628885D01*
X110976542Y-122628885D01*
X111167019Y-122747933D01*
X111262257Y-122986028D01*
X111262257Y-123224123D01*
X110309876Y-123462219D01*
X112976542Y-124295552D02*
X112976542Y-122986028D01*
X112881304Y-122747933D01*
X112690828Y-122628885D01*
X112309876Y-122628885D01*
X112119399Y-122747933D01*
X112976542Y-124176504D02*
X112786066Y-124295552D01*
X112309876Y-124295552D01*
X112119399Y-124176504D01*
X112024161Y-123938409D01*
X112024161Y-123700314D01*
X112119399Y-123462219D01*
X112309876Y-123343171D01*
X112786066Y-123343171D01*
X112976542Y-123224123D01*
X113833685Y-124176504D02*
X114024161Y-124295552D01*
X114405114Y-124295552D01*
X114595590Y-124176504D01*
X114690828Y-123938409D01*
X114690828Y-123819361D01*
X114595590Y-123581266D01*
X114405114Y-123462219D01*
X114119399Y-123462219D01*
X113928923Y-123343171D01*
X113833685Y-123105076D01*
X113833685Y-122986028D01*
X113928923Y-122747933D01*
X114119399Y-122628885D01*
X114405114Y-122628885D01*
X114595590Y-122747933D01*
X116405114Y-122628885D02*
X116405114Y-124295552D01*
X115547971Y-122628885D02*
X115547971Y-123938409D01*
X115643209Y-124176504D01*
X115833685Y-124295552D01*
X116119399Y-124295552D01*
X116309876Y-124176504D01*
X116405114Y-124057457D01*
X117357495Y-124295552D02*
X117357495Y-122628885D01*
X117357495Y-123105076D02*
X117452733Y-122866980D01*
X117547971Y-122747933D01*
X117738447Y-122628885D01*
X117928923Y-122628885D01*
X118595590Y-124295552D02*
X118595590Y-122628885D01*
X118595590Y-121795552D02*
X118500352Y-121914600D01*
X118595590Y-122033647D01*
X118690828Y-121914600D01*
X118595590Y-121795552D01*
X118595590Y-122033647D01*
X119547971Y-122628885D02*
X119547971Y-124295552D01*
X119547971Y-122866980D02*
X119643209Y-122747933D01*
X119833685Y-122628885D01*
X120119400Y-122628885D01*
X120309876Y-122747933D01*
X120405114Y-122986028D01*
X120405114Y-124295552D01*
X122214638Y-122628885D02*
X122214638Y-124652695D01*
X122119400Y-124890790D01*
X122024161Y-125009838D01*
X121833685Y-125128885D01*
X121547971Y-125128885D01*
X121357495Y-125009838D01*
X122214638Y-124176504D02*
X122024161Y-124295552D01*
X121643209Y-124295552D01*
X121452733Y-124176504D01*
X121357495Y-124057457D01*
X121262257Y-123819361D01*
X121262257Y-123105076D01*
X121357495Y-122866980D01*
X121452733Y-122747933D01*
X121643209Y-122628885D01*
X122024161Y-122628885D01*
X122214638Y-122747933D01*
X124595590Y-124176504D02*
X124786066Y-124295552D01*
X125167019Y-124295552D01*
X125357495Y-124176504D01*
X125452733Y-123938409D01*
X125452733Y-123819361D01*
X125357495Y-123581266D01*
X125167019Y-123462219D01*
X124881304Y-123462219D01*
X124690828Y-123343171D01*
X124595590Y-123105076D01*
X124595590Y-122986028D01*
X124690828Y-122747933D01*
X124881304Y-122628885D01*
X125167019Y-122628885D01*
X125357495Y-122747933D01*
X126119400Y-122628885D02*
X126595590Y-124295552D01*
X127071780Y-122628885D02*
X126595590Y-124295552D01*
X126405114Y-124890790D01*
X126309876Y-125009838D01*
X126119400Y-125128885D01*
X127738447Y-124176504D02*
X127928923Y-124295552D01*
X128309876Y-124295552D01*
X128500352Y-124176504D01*
X128595590Y-123938409D01*
X128595590Y-123819361D01*
X128500352Y-123581266D01*
X128309876Y-123462219D01*
X128024161Y-123462219D01*
X127833685Y-123343171D01*
X127738447Y-123105076D01*
X127738447Y-122986028D01*
X127833685Y-122747933D01*
X128024161Y-122628885D01*
X128309876Y-122628885D01*
X128500352Y-122747933D01*
X129167019Y-122628885D02*
X129928923Y-122628885D01*
X129452733Y-121795552D02*
X129452733Y-123938409D01*
X129547971Y-124176504D01*
X129738447Y-124295552D01*
X129928923Y-124295552D01*
X131357495Y-124176504D02*
X131167019Y-124295552D01*
X130786066Y-124295552D01*
X130595590Y-124176504D01*
X130500352Y-123938409D01*
X130500352Y-122986028D01*
X130595590Y-122747933D01*
X130786066Y-122628885D01*
X131167019Y-122628885D01*
X131357495Y-122747933D01*
X131452733Y-122986028D01*
X131452733Y-123224123D01*
X130500352Y-123462219D01*
X132309876Y-124295552D02*
X132309876Y-122628885D01*
X132309876Y-122866980D02*
X132405114Y-122747933D01*
X132595590Y-122628885D01*
X132881304Y-122628885D01*
X133071780Y-122747933D01*
X133167019Y-122986028D01*
X133167019Y-124295552D01*
X133167019Y-122986028D02*
X133262257Y-122747933D01*
X133452733Y-122628885D01*
X133738447Y-122628885D01*
X133928923Y-122747933D01*
X134024161Y-122986028D01*
X134024161Y-124295552D01*
D13*
X100345000Y-128270000D03*
X105395000Y-128270000D03*
X100345000Y-130810000D03*
X105395000Y-130810000D03*
X100345000Y-133350000D03*
X105395000Y-133350000D03*
X100345000Y-135890000D03*
X105395000Y-135890000D03*
D14*
X114460000Y-134079000D03*
X114460000Y-132809000D03*
X114460000Y-131539000D03*
X114460000Y-130269000D03*
X121760000Y-130269000D03*
X121760000Y-131539000D03*
X121760000Y-132809000D03*
X121760000Y-134079000D03*
D15*
G36*
X133646705Y-134817204D02*
G01*
X133670973Y-134820804D01*
X133694772Y-134826765D01*
X133717871Y-134835030D01*
X133740050Y-134845520D01*
X133761093Y-134858132D01*
X133780799Y-134872747D01*
X133798977Y-134889223D01*
X133815453Y-134907401D01*
X133830068Y-134927107D01*
X133842680Y-134948150D01*
X133853170Y-134970329D01*
X133861435Y-134993428D01*
X133867396Y-135017227D01*
X133870996Y-135041495D01*
X133872200Y-135065999D01*
X133872200Y-135716001D01*
X133870996Y-135740505D01*
X133867396Y-135764773D01*
X133861435Y-135788572D01*
X133853170Y-135811671D01*
X133842680Y-135833850D01*
X133830068Y-135854893D01*
X133815453Y-135874599D01*
X133798977Y-135892777D01*
X133780799Y-135909253D01*
X133761093Y-135923868D01*
X133740050Y-135936480D01*
X133717871Y-135946970D01*
X133694772Y-135955235D01*
X133670973Y-135961196D01*
X133646705Y-135964796D01*
X133622201Y-135966000D01*
X132722199Y-135966000D01*
X132697695Y-135964796D01*
X132673427Y-135961196D01*
X132649628Y-135955235D01*
X132626529Y-135946970D01*
X132604350Y-135936480D01*
X132583307Y-135923868D01*
X132563601Y-135909253D01*
X132545423Y-135892777D01*
X132528947Y-135874599D01*
X132514332Y-135854893D01*
X132501720Y-135833850D01*
X132491230Y-135811671D01*
X132482965Y-135788572D01*
X132477004Y-135764773D01*
X132473404Y-135740505D01*
X132472200Y-135716001D01*
X132472200Y-135065999D01*
X132473404Y-135041495D01*
X132477004Y-135017227D01*
X132482965Y-134993428D01*
X132491230Y-134970329D01*
X132501720Y-134948150D01*
X132514332Y-134927107D01*
X132528947Y-134907401D01*
X132545423Y-134889223D01*
X132563601Y-134872747D01*
X132583307Y-134858132D01*
X132604350Y-134845520D01*
X132626529Y-134835030D01*
X132649628Y-134826765D01*
X132673427Y-134820804D01*
X132697695Y-134817204D01*
X132722199Y-134816000D01*
X133622201Y-134816000D01*
X133646705Y-134817204D01*
X133646705Y-134817204D01*
G37*
D16*
X133172200Y-135391000D03*
D15*
G36*
X133646705Y-132767204D02*
G01*
X133670973Y-132770804D01*
X133694772Y-132776765D01*
X133717871Y-132785030D01*
X133740050Y-132795520D01*
X133761093Y-132808132D01*
X133780799Y-132822747D01*
X133798977Y-132839223D01*
X133815453Y-132857401D01*
X133830068Y-132877107D01*
X133842680Y-132898150D01*
X133853170Y-132920329D01*
X133861435Y-132943428D01*
X133867396Y-132967227D01*
X133870996Y-132991495D01*
X133872200Y-133015999D01*
X133872200Y-133666001D01*
X133870996Y-133690505D01*
X133867396Y-133714773D01*
X133861435Y-133738572D01*
X133853170Y-133761671D01*
X133842680Y-133783850D01*
X133830068Y-133804893D01*
X133815453Y-133824599D01*
X133798977Y-133842777D01*
X133780799Y-133859253D01*
X133761093Y-133873868D01*
X133740050Y-133886480D01*
X133717871Y-133896970D01*
X133694772Y-133905235D01*
X133670973Y-133911196D01*
X133646705Y-133914796D01*
X133622201Y-133916000D01*
X132722199Y-133916000D01*
X132697695Y-133914796D01*
X132673427Y-133911196D01*
X132649628Y-133905235D01*
X132626529Y-133896970D01*
X132604350Y-133886480D01*
X132583307Y-133873868D01*
X132563601Y-133859253D01*
X132545423Y-133842777D01*
X132528947Y-133824599D01*
X132514332Y-133804893D01*
X132501720Y-133783850D01*
X132491230Y-133761671D01*
X132482965Y-133738572D01*
X132477004Y-133714773D01*
X132473404Y-133690505D01*
X132472200Y-133666001D01*
X132472200Y-133015999D01*
X132473404Y-132991495D01*
X132477004Y-132967227D01*
X132482965Y-132943428D01*
X132491230Y-132920329D01*
X132501720Y-132898150D01*
X132514332Y-132877107D01*
X132528947Y-132857401D01*
X132545423Y-132839223D01*
X132563601Y-132822747D01*
X132583307Y-132808132D01*
X132604350Y-132795520D01*
X132626529Y-132785030D01*
X132649628Y-132776765D01*
X132673427Y-132770804D01*
X132697695Y-132767204D01*
X132722199Y-132766000D01*
X133622201Y-132766000D01*
X133646705Y-132767204D01*
X133646705Y-132767204D01*
G37*
D16*
X133172200Y-133341000D03*
D15*
G36*
X130573305Y-134817204D02*
G01*
X130597573Y-134820804D01*
X130621372Y-134826765D01*
X130644471Y-134835030D01*
X130666650Y-134845520D01*
X130687693Y-134858132D01*
X130707399Y-134872747D01*
X130725577Y-134889223D01*
X130742053Y-134907401D01*
X130756668Y-134927107D01*
X130769280Y-134948150D01*
X130779770Y-134970329D01*
X130788035Y-134993428D01*
X130793996Y-135017227D01*
X130797596Y-135041495D01*
X130798800Y-135065999D01*
X130798800Y-135716001D01*
X130797596Y-135740505D01*
X130793996Y-135764773D01*
X130788035Y-135788572D01*
X130779770Y-135811671D01*
X130769280Y-135833850D01*
X130756668Y-135854893D01*
X130742053Y-135874599D01*
X130725577Y-135892777D01*
X130707399Y-135909253D01*
X130687693Y-135923868D01*
X130666650Y-135936480D01*
X130644471Y-135946970D01*
X130621372Y-135955235D01*
X130597573Y-135961196D01*
X130573305Y-135964796D01*
X130548801Y-135966000D01*
X129648799Y-135966000D01*
X129624295Y-135964796D01*
X129600027Y-135961196D01*
X129576228Y-135955235D01*
X129553129Y-135946970D01*
X129530950Y-135936480D01*
X129509907Y-135923868D01*
X129490201Y-135909253D01*
X129472023Y-135892777D01*
X129455547Y-135874599D01*
X129440932Y-135854893D01*
X129428320Y-135833850D01*
X129417830Y-135811671D01*
X129409565Y-135788572D01*
X129403604Y-135764773D01*
X129400004Y-135740505D01*
X129398800Y-135716001D01*
X129398800Y-135065999D01*
X129400004Y-135041495D01*
X129403604Y-135017227D01*
X129409565Y-134993428D01*
X129417830Y-134970329D01*
X129428320Y-134948150D01*
X129440932Y-134927107D01*
X129455547Y-134907401D01*
X129472023Y-134889223D01*
X129490201Y-134872747D01*
X129509907Y-134858132D01*
X129530950Y-134845520D01*
X129553129Y-134835030D01*
X129576228Y-134826765D01*
X129600027Y-134820804D01*
X129624295Y-134817204D01*
X129648799Y-134816000D01*
X130548801Y-134816000D01*
X130573305Y-134817204D01*
X130573305Y-134817204D01*
G37*
D16*
X130098800Y-135391000D03*
D15*
G36*
X130573305Y-132767204D02*
G01*
X130597573Y-132770804D01*
X130621372Y-132776765D01*
X130644471Y-132785030D01*
X130666650Y-132795520D01*
X130687693Y-132808132D01*
X130707399Y-132822747D01*
X130725577Y-132839223D01*
X130742053Y-132857401D01*
X130756668Y-132877107D01*
X130769280Y-132898150D01*
X130779770Y-132920329D01*
X130788035Y-132943428D01*
X130793996Y-132967227D01*
X130797596Y-132991495D01*
X130798800Y-133015999D01*
X130798800Y-133666001D01*
X130797596Y-133690505D01*
X130793996Y-133714773D01*
X130788035Y-133738572D01*
X130779770Y-133761671D01*
X130769280Y-133783850D01*
X130756668Y-133804893D01*
X130742053Y-133824599D01*
X130725577Y-133842777D01*
X130707399Y-133859253D01*
X130687693Y-133873868D01*
X130666650Y-133886480D01*
X130644471Y-133896970D01*
X130621372Y-133905235D01*
X130597573Y-133911196D01*
X130573305Y-133914796D01*
X130548801Y-133916000D01*
X129648799Y-133916000D01*
X129624295Y-133914796D01*
X129600027Y-133911196D01*
X129576228Y-133905235D01*
X129553129Y-133896970D01*
X129530950Y-133886480D01*
X129509907Y-133873868D01*
X129490201Y-133859253D01*
X129472023Y-133842777D01*
X129455547Y-133824599D01*
X129440932Y-133804893D01*
X129428320Y-133783850D01*
X129417830Y-133761671D01*
X129409565Y-133738572D01*
X129403604Y-133714773D01*
X129400004Y-133690505D01*
X129398800Y-133666001D01*
X129398800Y-133015999D01*
X129400004Y-132991495D01*
X129403604Y-132967227D01*
X129409565Y-132943428D01*
X129417830Y-132920329D01*
X129428320Y-132898150D01*
X129440932Y-132877107D01*
X129455547Y-132857401D01*
X129472023Y-132839223D01*
X129490201Y-132822747D01*
X129509907Y-132808132D01*
X129530950Y-132795520D01*
X129553129Y-132785030D01*
X129576228Y-132776765D01*
X129600027Y-132770804D01*
X129624295Y-132767204D01*
X129648799Y-132766000D01*
X130548801Y-132766000D01*
X130573305Y-132767204D01*
X130573305Y-132767204D01*
G37*
D16*
X130098800Y-133341000D03*
D15*
G36*
X126095905Y-131000204D02*
G01*
X126120173Y-131003804D01*
X126143972Y-131009765D01*
X126167071Y-131018030D01*
X126189250Y-131028520D01*
X126210293Y-131041132D01*
X126229999Y-131055747D01*
X126248177Y-131072223D01*
X126264653Y-131090401D01*
X126279268Y-131110107D01*
X126291880Y-131131150D01*
X126302370Y-131153329D01*
X126310635Y-131176428D01*
X126316596Y-131200227D01*
X126320196Y-131224495D01*
X126321400Y-131248999D01*
X126321400Y-132149001D01*
X126320196Y-132173505D01*
X126316596Y-132197773D01*
X126310635Y-132221572D01*
X126302370Y-132244671D01*
X126291880Y-132266850D01*
X126279268Y-132287893D01*
X126264653Y-132307599D01*
X126248177Y-132325777D01*
X126229999Y-132342253D01*
X126210293Y-132356868D01*
X126189250Y-132369480D01*
X126167071Y-132379970D01*
X126143972Y-132388235D01*
X126120173Y-132394196D01*
X126095905Y-132397796D01*
X126071401Y-132399000D01*
X125421399Y-132399000D01*
X125396895Y-132397796D01*
X125372627Y-132394196D01*
X125348828Y-132388235D01*
X125325729Y-132379970D01*
X125303550Y-132369480D01*
X125282507Y-132356868D01*
X125262801Y-132342253D01*
X125244623Y-132325777D01*
X125228147Y-132307599D01*
X125213532Y-132287893D01*
X125200920Y-132266850D01*
X125190430Y-132244671D01*
X125182165Y-132221572D01*
X125176204Y-132197773D01*
X125172604Y-132173505D01*
X125171400Y-132149001D01*
X125171400Y-131248999D01*
X125172604Y-131224495D01*
X125176204Y-131200227D01*
X125182165Y-131176428D01*
X125190430Y-131153329D01*
X125200920Y-131131150D01*
X125213532Y-131110107D01*
X125228147Y-131090401D01*
X125244623Y-131072223D01*
X125262801Y-131055747D01*
X125282507Y-131041132D01*
X125303550Y-131028520D01*
X125325729Y-131018030D01*
X125348828Y-131009765D01*
X125372627Y-131003804D01*
X125396895Y-131000204D01*
X125421399Y-130999000D01*
X126071401Y-130999000D01*
X126095905Y-131000204D01*
X126095905Y-131000204D01*
G37*
D16*
X125746400Y-131699000D03*
D15*
G36*
X128145905Y-131000204D02*
G01*
X128170173Y-131003804D01*
X128193972Y-131009765D01*
X128217071Y-131018030D01*
X128239250Y-131028520D01*
X128260293Y-131041132D01*
X128279999Y-131055747D01*
X128298177Y-131072223D01*
X128314653Y-131090401D01*
X128329268Y-131110107D01*
X128341880Y-131131150D01*
X128352370Y-131153329D01*
X128360635Y-131176428D01*
X128366596Y-131200227D01*
X128370196Y-131224495D01*
X128371400Y-131248999D01*
X128371400Y-132149001D01*
X128370196Y-132173505D01*
X128366596Y-132197773D01*
X128360635Y-132221572D01*
X128352370Y-132244671D01*
X128341880Y-132266850D01*
X128329268Y-132287893D01*
X128314653Y-132307599D01*
X128298177Y-132325777D01*
X128279999Y-132342253D01*
X128260293Y-132356868D01*
X128239250Y-132369480D01*
X128217071Y-132379970D01*
X128193972Y-132388235D01*
X128170173Y-132394196D01*
X128145905Y-132397796D01*
X128121401Y-132399000D01*
X127471399Y-132399000D01*
X127446895Y-132397796D01*
X127422627Y-132394196D01*
X127398828Y-132388235D01*
X127375729Y-132379970D01*
X127353550Y-132369480D01*
X127332507Y-132356868D01*
X127312801Y-132342253D01*
X127294623Y-132325777D01*
X127278147Y-132307599D01*
X127263532Y-132287893D01*
X127250920Y-132266850D01*
X127240430Y-132244671D01*
X127232165Y-132221572D01*
X127226204Y-132197773D01*
X127222604Y-132173505D01*
X127221400Y-132149001D01*
X127221400Y-131248999D01*
X127222604Y-131224495D01*
X127226204Y-131200227D01*
X127232165Y-131176428D01*
X127240430Y-131153329D01*
X127250920Y-131131150D01*
X127263532Y-131110107D01*
X127278147Y-131090401D01*
X127294623Y-131072223D01*
X127312801Y-131055747D01*
X127332507Y-131041132D01*
X127353550Y-131028520D01*
X127375729Y-131018030D01*
X127398828Y-131009765D01*
X127422627Y-131003804D01*
X127446895Y-131000204D01*
X127471399Y-130999000D01*
X128121401Y-130999000D01*
X128145905Y-131000204D01*
X128145905Y-131000204D01*
G37*
D16*
X127796400Y-131699000D03*
D17*
X139630000Y-131240000D03*
X139630000Y-132920000D03*
D18*
X139630000Y-129170000D03*
X139630000Y-134990000D03*
D19*
X137330000Y-129617500D03*
X137330000Y-134542500D03*
D20*
X136970000Y-130780000D03*
X136970000Y-131430000D03*
X136970000Y-132080000D03*
X136970000Y-132730000D03*
X136970000Y-133380000D03*
D21*
X133273800Y-128388400D03*
X133273800Y-130488400D03*
X130098800Y-128388400D03*
X130098800Y-130488400D03*
D22*
X137095001Y-130654999D02*
X136970000Y-130654999D01*
X137330000Y-129617500D02*
X137330000Y-130420000D01*
X137330000Y-130420000D02*
X137095001Y-130654999D01*
X139630000Y-131240000D02*
X139630000Y-129170000D01*
X139182500Y-129617500D02*
X139630000Y-129170000D01*
X137330000Y-129617500D02*
X139182500Y-129617500D01*
X139182500Y-134542500D02*
X139630000Y-134990000D01*
X137330000Y-134542500D02*
X139182500Y-134542500D01*
X139630000Y-132920000D02*
X139630000Y-134990000D01*
X139630000Y-131240000D02*
X139630000Y-132920000D01*
D10*
X137330000Y-128655000D02*
X137330000Y-129617500D01*
X137063400Y-128388400D02*
X137330000Y-128655000D01*
X133273800Y-128388400D02*
X137063400Y-128388400D01*
X121760000Y-130269000D02*
X123604000Y-130269000D01*
X125484600Y-128388400D02*
X130098800Y-128388400D01*
X123604000Y-130269000D02*
X125484600Y-128388400D01*
X130548800Y-128388400D02*
X133273800Y-128388400D01*
X130098800Y-128388400D02*
X130548800Y-128388400D01*
D22*
X102420000Y-128270000D02*
X105395000Y-128270000D01*
X100345000Y-128270000D02*
X102420000Y-128270000D01*
X121760000Y-129444000D02*
X121760000Y-130269000D01*
X105395000Y-128270000D02*
X107470000Y-128270000D01*
X107470000Y-128270000D02*
X109171800Y-126568200D01*
X120015000Y-126568200D02*
X121793000Y-128346200D01*
X109171800Y-126568200D02*
X120015000Y-126568200D01*
X121793000Y-128346200D02*
X121793000Y-129411000D01*
X121793000Y-129411000D02*
X121760000Y-129444000D01*
D10*
X130098800Y-133341000D02*
X130098800Y-130488400D01*
X132372200Y-133341000D02*
X130098800Y-133341000D01*
X133172200Y-133341000D02*
X132372200Y-133341000D01*
X136970000Y-132730000D02*
X135265400Y-132730000D01*
X134654400Y-133341000D02*
X133172200Y-133341000D01*
X135265400Y-132730000D02*
X134654400Y-133341000D01*
X127796400Y-131699000D02*
X127796400Y-130166000D01*
X127796400Y-130166000D02*
X128549400Y-129413000D01*
X128549400Y-129413000D02*
X132943600Y-129413000D01*
X133273800Y-129743200D02*
X133273800Y-130488400D01*
X132943600Y-129413000D02*
X133273800Y-129743200D01*
X134298400Y-130488400D02*
X133273800Y-130488400D01*
X136321800Y-132080000D02*
X136309301Y-132067501D01*
X136309301Y-132067501D02*
X134777901Y-132067501D01*
X134777901Y-132067501D02*
X134569200Y-131858800D01*
X134569200Y-131858800D02*
X134569200Y-130759200D01*
X136970000Y-132080000D02*
X136321800Y-132080000D01*
X134569200Y-130759200D02*
X134298400Y-130488400D01*
D22*
X113092200Y-132791200D02*
X111125000Y-132791200D01*
X114460000Y-132809000D02*
X113110000Y-132809000D01*
X113110000Y-132809000D02*
X113092200Y-132791200D01*
D10*
X110617000Y-132791200D02*
X111125000Y-132791200D01*
X108813600Y-134594600D02*
X110617000Y-132791200D01*
X102664600Y-134594600D02*
X108813600Y-134594600D01*
X100345000Y-133350000D02*
X101420000Y-133350000D01*
X101420000Y-133350000D02*
X102664600Y-134594600D01*
D22*
X108077000Y-133350000D02*
X105395000Y-133350000D01*
X109880400Y-131546600D02*
X108077000Y-133350000D01*
X113102400Y-131546600D02*
X109880400Y-131546600D01*
X114460000Y-131539000D02*
X113110000Y-131539000D01*
X113110000Y-131539000D02*
X113102400Y-131546600D01*
X113411000Y-128092200D02*
X110871000Y-128092200D01*
X117576600Y-128092200D02*
X113411000Y-128092200D01*
X118033800Y-128549400D02*
X117576600Y-128092200D01*
X118033800Y-131702800D02*
X118033800Y-128549400D01*
X121760000Y-134079000D02*
X120410000Y-134079000D01*
X120410000Y-134079000D02*
X118033800Y-131702800D01*
D10*
X109575600Y-128092200D02*
X110871000Y-128092200D01*
X108178600Y-129489200D02*
X109575600Y-128092200D01*
X102692200Y-129489200D02*
X108178600Y-129489200D01*
X100345000Y-130810000D02*
X101371400Y-130810000D01*
X101371400Y-130810000D02*
X102692200Y-129489200D01*
D22*
X108585000Y-130810000D02*
X105395000Y-130810000D01*
X109143800Y-130251200D02*
X108585000Y-130810000D01*
X113092200Y-130251200D02*
X109143800Y-130251200D01*
X114460000Y-130269000D02*
X113110000Y-130269000D01*
X113110000Y-130269000D02*
X113092200Y-130251200D01*
D10*
X136970000Y-133380000D02*
X135691400Y-133380000D01*
X133795572Y-134767628D02*
X133172200Y-135391000D01*
X134303772Y-134767628D02*
X133795572Y-134767628D01*
X135691400Y-133380000D02*
X134303772Y-134767628D01*
D22*
X133172200Y-138125200D02*
X133172200Y-135391000D01*
X114460000Y-134079000D02*
X114460000Y-134904000D01*
X114427000Y-134937000D02*
X114427000Y-136677400D01*
X114427000Y-136677400D02*
X116916200Y-139166600D01*
X116916200Y-139166600D02*
X132130800Y-139166600D01*
X114460000Y-134904000D02*
X114427000Y-134937000D01*
X132130800Y-139166600D02*
X133172200Y-138125200D01*
X102420000Y-135890000D02*
X105395000Y-135890000D01*
X100345000Y-135890000D02*
X102420000Y-135890000D01*
X114427000Y-136677400D02*
X114401600Y-136677400D01*
X114401600Y-136677400D02*
X111836200Y-139242800D01*
X111836200Y-139242800D02*
X106476800Y-139242800D01*
X105395000Y-138161000D02*
X105395000Y-135890000D01*
X106476800Y-139242800D02*
X105395000Y-138161000D01*
D10*
X125586400Y-131539000D02*
X125746400Y-131699000D01*
X121760000Y-131539000D02*
X125586400Y-131539000D01*
X130098800Y-135391000D02*
X126991000Y-135391000D01*
X126991000Y-135391000D02*
X125610400Y-134010400D01*
X125610400Y-134010400D02*
X124891800Y-134010400D01*
X123690400Y-132809000D02*
X121760000Y-132809000D01*
X124891800Y-134010400D02*
X123690400Y-132809000D01*
M02*
